<svg width="469.333" height="469.333" xmlns="http://www.w3.org/2000/svg">

 <g>
  <title>background</title>
  <rect fill="none" id="canvas_background" height="402" width="582" y="-1" x="-1"/>
 </g>
 <g>
  <title>Layer 1</title>
  <g id="svg_1">
   <g id="svg_2">
    <path id="svg_4" fill="#f36a63" d="m448,243.482l0,-200.815c0,-23.532 -19.146,-42.667 -42.667,-42.667l-362.666,0c-23.521,0 -42.667,19.135 -42.667,42.667l0,362.667c0,23.531 19.146,42.666 42.667,42.666l200.815,0c22.414,13.452 48.533,21.333 76.518,21.333c82.333,0 149.333,-66.99 149.333,-149.333c0,-27.987 -7.881,-54.105 -21.333,-76.518zm-213.333,-222.149l170.667,0c11.771,0 21.333,9.573 21.333,21.333l0,173.025c-27.13,-27.738 -64.9,-45.025 -106.667,-45.025c-31.727,0 -61.117,10.021 -85.333,26.961l0,-176.294zm-213.334,21.334c0,-11.76 9.563,-21.333 21.333,-21.333l170.667,0l0,192l-192,0l0,-170.667zm21.334,384c-11.771,0 -21.333,-9.573 -21.333,-21.333l0,-170.667l176.294,0c-16.939,24.215 -26.961,53.605 -26.961,85.333c0,41.77 17.288,79.538 45.025,106.667l-173.025,0zm277.333,21.333c-70.583,0 -128,-57.417 -128,-128c0,-70.583 57.417,-128 128,-128s128,57.417 128,128c0,70.583 -57.417,128 -128,128z"/>
    <path id="svg_5" fill="#f36a63" d="m160,106.667l-32,0l0,-32c0,-5.896 -4.771,-10.667 -10.667,-10.667c-5.896,0 -10.667,4.771 -10.667,10.667l0,32l-32,0c-5.896,0 -10.667,4.771 -10.667,10.667c0.001,5.895 4.772,10.666 10.668,10.666l32,0l0,32c0,5.896 4.771,10.667 10.667,10.667c5.896,0 10.667,-4.771 10.667,-10.667l0,-32l32,0c5.896,0 10.667,-4.771 10.667,-10.667c-0.001,-5.896 -4.772,-10.666 -10.668,-10.666z"/>
    <path id="svg_6" fill="#f36a63" d="m384,117.333c0,-5.896 -4.771,-10.667 -10.667,-10.667l-85.333,0c-5.896,0 -10.667,4.771 -10.667,10.667c0,5.896 4.771,10.667 10.667,10.667l85.333,0c5.896,0 10.667,-4.771 10.667,-10.667z"/>
    <path id="svg_7" fill="#f36a63" d="m156.875,291.125c-4.167,-4.167 -10.917,-4.167 -15.083,0l-24.458,24.458l-24.458,-24.458c-4.167,-4.167 -10.917,-4.167 -15.083,0c-4.167,4.167 -4.167,10.917 0,15.083l24.458,24.458l-24.458,24.458c-4.167,4.167 -4.167,10.917 0,15.083c2.083,2.083 4.813,3.125 7.542,3.125c2.729,0 5.458,-1.042 7.542,-3.125l24.458,-24.458l24.458,24.458c2.083,2.083 4.813,3.125 7.542,3.125c2.729,0 5.458,-1.042 7.542,-3.125c4.167,-4.167 4.167,-10.917 0,-15.083l-24.458,-24.458l24.458,-24.458c4.165,-4.166 4.165,-10.916 -0.002,-15.083z"/>
   </g>
  </g>
  <g id="svg_10"/>
  <g id="svg_11"/>
  <g id="svg_12"/>
  <g id="svg_13"/>
  <g id="svg_14"/>
  <g id="svg_15"/>
  <g id="svg_16"/>
  <g id="svg_17"/>
  <g id="svg_18"/>
  <g id="svg_19"/>
  <g id="svg_20"/>
  <g id="svg_21"/>
  <g id="svg_22"/>
  <g id="svg_23"/>
  <g id="svg_24"/>
  <g stroke="null" id="svg_34">
   <g stroke="null" transform="matrix(0.4462710763565842,0,0,0.4462710763565842,-2697.1856765548146,-2708.240972692729) " id="svg_29">
    <path stroke="null" id="svg_30" d="m7009.914773,6789.313763c0,-32.5 -40.7,-63.3 -103.1,-82.4c14.4,-63.6 8,-114.2 -20.2,-130.4c-6.5,-3.8 -14.1,-5.6 -22.4,-5.6l0,22.3c4.6,0 8.3,0.9 11.4,2.6c13.6,7.8 19.5,37.5 14.9,75.7c-1.1,9.4 -2.9,19.3 -5.1,29.4c-19.6,-4.8 -41,-8.5 -63.5,-10.9c-13.5,-18.5 -27.5,-35.3 -41.6,-50c32.6,-30.3 63.2,-46.9 84,-46.9l0,-22.3c0,0 0,0 0,0c-27.5,0 -63.5,19.6 -99.9,53.6c-36.4,-33.8 -72.4,-53.2 -99.9,-53.2l0,22.3c20.7,0 51.4,16.5 84,46.6c-14,14.7 -28,31.4 -41.3,49.9c-22.6,2.4 -44,6.1 -63.6,11c-2.3,-10 -4,-19.7 -5.2,-29c-4.7,-38.2 1.1,-67.9 14.6,-75.8c3,-1.8 6.9,-2.6 11.5,-2.6l0,-22.3c0,0 0,0 0,0c-8.4,0 -16,1.8 -22.6,5.6c-28.1,16.2 -34.4,66.7 -19.9,130.1c-62.2,19.2 -102.7,49.9 -102.7,82.3c0,32.5 40.7,63.3 103.1,82.4c-14.4,63.6 -8,114.2 20.2,130.4c6.5,3.8 14.1,5.6 22.5,5.6c27.5,0 63.5,-19.6 99.9,-53.6c36.4,33.8 72.4,53.2 99.9,53.2c8.4,0 16,-1.8 22.6,-5.6c28.1,-16.2 34.4,-66.7 19.9,-130.1c62,-19.1 102.5,-49.9 102.5,-82.3zm-130.2,-66.7c-3.7,12.9 -8.3,26.2 -13.5,39.5c-4.1,-8 -8.4,-16 -13.1,-24c-4.6,-8 -9.5,-15.8 -14.4,-23.4c14.2,2.1 27.9,4.7 41,7.9zm-45.8,106.5c-7.8,13.5 -15.8,26.3 -24.1,38.2c-14.9,1.3 -30,2 -45.2,2c-15.1,0 -30.2,-0.7 -45,-1.9c-8.3,-11.9 -16.4,-24.6 -24.2,-38c-7.6,-13.1 -14.5,-26.4 -20.8,-39.8c6.2,-13.4 13.2,-26.8 20.7,-39.9c7.8,-13.5 15.8,-26.3 24.1,-38.2c14.9,-1.3 30,-2 45.2,-2c15.1,0 30.2,0.7 45,1.9c8.3,11.9 16.4,24.6 24.2,38c7.6,13.1 14.5,26.4 20.8,39.8c-6.3,13.4 -13.2,26.8 -20.7,39.9zm32.3,-13c5.4,13.4 10,26.8 13.8,39.8c-13.1,3.2 -26.9,5.9 -41.2,8c4.9,-7.7 9.8,-15.6 14.4,-23.7c4.6,-8 8.9,-16.1 13,-24.1zm-101.4,106.7c-9.3,-9.6 -18.6,-20.3 -27.8,-32c9,0.4 18.2,0.7 27.5,0.7c9.4,0 18.7,-0.2 27.8,-0.7c-9,11.7 -18.3,22.4 -27.5,32zm-74.4,-58.9c-14.2,-2.1 -27.9,-4.7 -41,-7.9c3.7,-12.9 8.3,-26.2 13.5,-39.5c4.1,8 8.4,16 13.1,24c4.7,8 9.5,15.8 14.4,23.4zm73.9,-208.1c9.3,9.6 18.6,20.3 27.8,32c-9,-0.4 -18.2,-0.7 -27.5,-0.7c-9.4,0 -18.7,0.2 -27.8,0.7c9,-11.7 18.3,-22.4 27.5,-32zm-74,58.9c-4.9,7.7 -9.8,15.6 -14.4,23.7c-4.6,8 -8.9,16 -13,24c-5.4,-13.4 -10,-26.8 -13.8,-39.8c13.1,-3.1 26.9,-5.8 41.2,-7.9zm-90.5,125.2c-35.4,-15.1 -58.3,-34.9 -58.3,-50.6c0,-15.7 22.9,-35.6 58.3,-50.6c8.6,-3.7 18,-7 27.7,-10.1c5.7,19.6 13.2,40 22.5,60.9c-9.2,20.8 -16.6,41.1 -22.2,60.6c-9.9,-3.1 -19.3,-6.5 -28,-10.2zm53.8,142.9c-13.6,-7.8 -19.5,-37.5 -14.9,-75.7c1.1,-9.4 2.9,-19.3 5.1,-29.4c19.6,4.8 41,8.5 63.5,10.9c13.5,18.5 27.5,35.3 41.6,50c-32.6,30.3 -63.2,46.9 -84,46.9c-4.5,-0.1 -8.3,-1 -11.3,-2.7zm237.2,-76.2c4.7,38.2 -1.1,67.9 -14.6,75.8c-3,1.8 -6.9,2.6 -11.5,2.6c-20.7,0 -51.4,-16.5 -84,-46.6c14,-14.7 28,-31.4 41.3,-49.9c22.6,-2.4 44,-6.1 63.6,-11c2.3,10.1 4.1,19.8 5.2,29.1zm38.5,-66.7c-8.6,3.7 -18,7 -27.7,10.1c-5.7,-19.6 -13.2,-40 -22.5,-60.9c9.2,-20.8 16.6,-41.1 22.2,-60.6c9.9,3.1 19.3,6.5 28.1,10.2c35.4,15.1 58.3,34.9 58.3,50.6c-0.1,15.7 -23,35.6 -58.4,50.6z" fill="#61DAFB"/>
    <polygon stroke="null" id="svg_31" points="6664.4146728515625,6571.213714599609 6664.4146728515625,6571.213714599609 6664.4146728515625,6571.213714599609 " fill="#61DAFB"/>
    <circle stroke="null" id="svg_32" r="45.700001" cy="6789.313763" cx="6764.514773" fill="#61DAFB"/>
    <polygon stroke="null" id="svg_33" points="6864.1148681640625,6570.913909912109 6864.1148681640625,6570.913909912109 6864.1148681640625,6570.913909912109 " fill="#61DAFB"/>
   </g>
  </g>
 </g>
</svg>